<?xml version="1.0" encoding="UTF-8" standalone="no"?>
<!-- Created with Inkscape (http://www.inkscape.org/) -->

<svg
   xmlns:dc="http://purl.org/dc/elements/1.1/"
   xmlns:cc="http://creativecommons.org/ns#"
   xmlns:rdf="http://www.w3.org/1999/02/22-rdf-syntax-ns#"
   xmlns:svg="http://www.w3.org/2000/svg"
   xmlns="http://www.w3.org/2000/svg"
   xmlns:sodipodi="http://sodipodi.sourceforge.net/DTD/sodipodi-0.dtd"
   xmlns:inkscape="http://www.inkscape.org/namespaces/inkscape"
   width="210mm"
   height="297mm"
   viewBox="0 0 744.09448819 1052.3622047"
   id="svg2"
   version="1.1"
   inkscape:version="0.91 r13725"
   sodipodi:docname="searchicon.svg">
  <defs
     id="defs4" />
  <sodipodi:namedview
     id="base"
     pagecolor="#ffffff"
     bordercolor="#666666"
     borderopacity="1.0"
     inkscape:pageopacity="0.0"
     inkscape:pageshadow="2"
     inkscape:zoom="1.979899"
     inkscape:cx="-45.197915"
     inkscape:cy="91.761209"
     inkscape:document-units="px"
     inkscape:current-layer="layer1"
     showgrid="false" />
  <metadata
     id="metadata7">
    <rdf:RDF>
      <cc:Work
         rdf:about="">
        <dc:format>image/svg+xml</dc:format>
        <dc:type
           rdf:resource="http://purl.org/dc/dcmitype/StillImage" />
        <dc:title />
      </cc:Work>
    </rdf:RDF>
  </metadata>
  <g
     inkscape:label="Layer 1"
     inkscape:groupmode="layer"
     id="layer1">
    <path
       style="opacity:1;fill:#333333;fill-opacity:1;stroke:none;stroke-width:0.5;stroke-linecap:butt;stroke-linejoin:miter;stroke-miterlimit:4;stroke-dasharray:none;stroke-opacity:1"
       d="M 21.677734 1002.3652 A 21.99913 21.99913 0 0 0 6.4433594 1008.8047 A 21.99913 21.99913 0 0 0 6.4433594 1039.918 A 21.99913 21.99913 0 0 0 34.111328 1042.6953 L 43.777344 1052.3613 L 50 1046.1406 L 40.349609 1036.4902 A 21.99913 21.99913 0 0 0 37.554688 1008.8047 A 21.99913 21.99913 0 0 0 21.677734 1002.3652 z M 22.255859 1006.7637 A 17.599304 17.599304 0 0 1 34.443359 1011.916 A 17.599304 17.599304 0 0 1 34.443359 1036.8066 A 17.599304 17.599304 0 0 1 9.5546875 1036.8066 A 17.599304 17.599304 0 0 1 9.5546875 1011.916 A 17.599304 17.599304 0 0 1 22.255859 1006.7637 z "
       id="path4136" />
  </g>
</svg>
